<?xml version="1.0" encoding="utf-8" standalone="no"?>
<!DOCTYPE svg PUBLIC "-//W3C//DTD SVG 1.1//EN"
  "http://www.w3.org/Graphics/SVG/1.1/DTD/svg11.dtd">
<svg xmlns:xlink="http://www.w3.org/1999/xlink" width="457.010141pt" height="152.970478pt" viewBox="0 0 457.010141 152.970478" xmlns="http://www.w3.org/2000/svg" version="1.1">
 <metadata>
  <rdf:RDF xmlns:dc="http://purl.org/dc/elements/1.1/" xmlns:cc="http://creativecommons.org/ns#" xmlns:rdf="http://www.w3.org/1999/02/22-rdf-syntax-ns#">
   <cc:Work>
    <dc:type rdf:resource="http://purl.org/dc/dcmitype/StillImage"/>
    <dc:date>2026-05-07T10:24:36.108553</dc:date>
    <dc:format>image/svg+xml</dc:format>
    <dc:creator>
     <cc:Agent>
      <dc:title>Matplotlib v3.10.8, https://matplotlib.org/</dc:title>
     </cc:Agent>
    </dc:creator>
   </cc:Work>
  </rdf:RDF>
 </metadata>
 <defs>
  <style type="text/css">*{stroke-linejoin: round; stroke-linecap: butt}</style>
 </defs>
 <g id="figure_1">
  <g id="patch_1">
   <path d="M 0 152.970478 
L 457.010141 152.970478 
L 457.010141 0 
L 0 0 
z
" style="fill: #ffffff"/>
  </g>
  <g id="axes_1">
   <g id="patch_2">
    <path d="M 54.186875 103.7664 
L 447.342875 103.7664 
L 447.342875 2.16 
L 54.186875 2.16 
z
" style="fill: #ffffff"/>
   </g>
   <g id="matplotlib.axis_1">
    <g id="xtick_1">
     <g id="line2d_1">
      <path d="M 54.186875 103.7664 
L 54.186875 2.16 
" clip-path="url(#p05935d6e82)" style="fill: none; stroke: #e5e7eb; stroke-width: 0.6; stroke-linecap: square"/>
     </g>
     <g id="line2d_2">
      <defs>
       <path id="m801a399a8c" d="M 0 0 
L 0 3 
" style="stroke: #94a3b8; stroke-width: 0.8"/>
      </defs>
      <g>
       <use xlink:href="#m801a399a8c" x="54.186875" y="103.7664" style="fill: #94a3b8; stroke: #94a3b8; stroke-width: 0.8"/>
      </g>
     </g>
     <g id="text_1">
      <!-- 0 -->
      <g style="fill: #1f2937" transform="translate(51.684453 116.708431) scale(0.09 -0.09)">
       <defs>
        <path id="ArialMT-30" d="M 266 2259 
Q 266 3072 433 3567 
Q 600 4063 929 4331 
Q 1259 4600 1759 4600 
Q 2128 4600 2406 4451 
Q 2684 4303 2865 4023 
Q 3047 3744 3150 3342 
Q 3253 2941 3253 2259 
Q 3253 1453 3087 958 
Q 2922 463 2592 192 
Q 2263 -78 1759 -78 
Q 1097 -78 719 397 
Q 266 969 266 2259 
z
M 844 2259 
Q 844 1131 1108 757 
Q 1372 384 1759 384 
Q 2147 384 2411 759 
Q 2675 1134 2675 2259 
Q 2675 3391 2411 3762 
Q 2147 4134 1753 4134 
Q 1366 4134 1134 3806 
Q 844 3388 844 2259 
z
" transform="scale(0.015625)"/>
       </defs>
       <use xlink:href="#ArialMT-30"/>
      </g>
     </g>
    </g>
    <g id="xtick_2">
     <g id="line2d_3">
      <path d="M 152.475875 103.7664 
L 152.475875 2.16 
" clip-path="url(#p05935d6e82)" style="fill: none; stroke: #e5e7eb; stroke-width: 0.6; stroke-linecap: square"/>
     </g>
     <g id="line2d_4">
      <g>
       <use xlink:href="#m801a399a8c" x="152.475875" y="103.7664" style="fill: #94a3b8; stroke: #94a3b8; stroke-width: 0.8"/>
      </g>
     </g>
     <g id="text_2">
      <!-- 25 -->
      <g style="fill: #1f2937" transform="translate(147.471031 116.708431) scale(0.09 -0.09)">
       <defs>
        <path id="ArialMT-32" d="M 3222 541 
L 3222 0 
L 194 0 
Q 188 203 259 391 
Q 375 700 629 1000 
Q 884 1300 1366 1694 
Q 2113 2306 2375 2664 
Q 2638 3022 2638 3341 
Q 2638 3675 2398 3904 
Q 2159 4134 1775 4134 
Q 1369 4134 1125 3890 
Q 881 3647 878 3216 
L 300 3275 
Q 359 3922 746 4261 
Q 1134 4600 1788 4600 
Q 2447 4600 2831 4234 
Q 3216 3869 3216 3328 
Q 3216 3053 3103 2787 
Q 2991 2522 2730 2228 
Q 2469 1934 1863 1422 
Q 1356 997 1212 845 
Q 1069 694 975 541 
L 3222 541 
z
" transform="scale(0.015625)"/>
        <path id="ArialMT-35" d="M 266 1200 
L 856 1250 
Q 922 819 1161 601 
Q 1400 384 1738 384 
Q 2144 384 2425 690 
Q 2706 997 2706 1503 
Q 2706 1984 2436 2262 
Q 2166 2541 1728 2541 
Q 1456 2541 1237 2417 
Q 1019 2294 894 2097 
L 366 2166 
L 809 4519 
L 3088 4519 
L 3088 3981 
L 1259 3981 
L 1013 2750 
Q 1425 3038 1878 3038 
Q 2478 3038 2890 2622 
Q 3303 2206 3303 1553 
Q 3303 931 2941 478 
Q 2500 -78 1738 -78 
Q 1113 -78 717 272 
Q 322 622 266 1200 
z
" transform="scale(0.015625)"/>
       </defs>
       <use xlink:href="#ArialMT-32"/>
       <use xlink:href="#ArialMT-35" transform="translate(55.615234 0)"/>
      </g>
     </g>
    </g>
    <g id="xtick_3">
     <g id="line2d_5">
      <path d="M 250.764875 103.7664 
L 250.764875 2.16 
" clip-path="url(#p05935d6e82)" style="fill: none; stroke: #e5e7eb; stroke-width: 0.6; stroke-linecap: square"/>
     </g>
     <g id="line2d_6">
      <g>
       <use xlink:href="#m801a399a8c" x="250.764875" y="103.7664" style="fill: #94a3b8; stroke: #94a3b8; stroke-width: 0.8"/>
      </g>
     </g>
     <g id="text_3">
      <!-- 50 -->
      <g style="fill: #1f2937" transform="translate(245.760031 116.708431) scale(0.09 -0.09)">
       <use xlink:href="#ArialMT-35"/>
       <use xlink:href="#ArialMT-30" transform="translate(55.615234 0)"/>
      </g>
     </g>
    </g>
    <g id="xtick_4">
     <g id="line2d_7">
      <path d="M 349.053875 103.7664 
L 349.053875 2.16 
" clip-path="url(#p05935d6e82)" style="fill: none; stroke: #e5e7eb; stroke-width: 0.6; stroke-linecap: square"/>
     </g>
     <g id="line2d_8">
      <g>
       <use xlink:href="#m801a399a8c" x="349.053875" y="103.7664" style="fill: #94a3b8; stroke: #94a3b8; stroke-width: 0.8"/>
      </g>
     </g>
     <g id="text_4">
      <!-- 75 -->
      <g style="fill: #1f2937" transform="translate(344.049031 116.708431) scale(0.09 -0.09)">
       <defs>
        <path id="ArialMT-37" d="M 303 3981 
L 303 4522 
L 3269 4522 
L 3269 4084 
Q 2831 3619 2401 2847 
Q 1972 2075 1738 1259 
Q 1569 684 1522 0 
L 944 0 
Q 953 541 1156 1306 
Q 1359 2072 1739 2783 
Q 2119 3494 2547 3981 
L 303 3981 
z
" transform="scale(0.015625)"/>
       </defs>
       <use xlink:href="#ArialMT-37"/>
       <use xlink:href="#ArialMT-35" transform="translate(55.615234 0)"/>
      </g>
     </g>
    </g>
    <g id="xtick_5">
     <g id="line2d_9">
      <path d="M 447.342875 103.7664 
L 447.342875 2.16 
" clip-path="url(#p05935d6e82)" style="fill: none; stroke: #e5e7eb; stroke-width: 0.6; stroke-linecap: square"/>
     </g>
     <g id="line2d_10">
      <g>
       <use xlink:href="#m801a399a8c" x="447.342875" y="103.7664" style="fill: #94a3b8; stroke: #94a3b8; stroke-width: 0.8"/>
      </g>
     </g>
     <g id="text_5">
      <!-- 100 -->
      <g style="fill: #1f2937" transform="translate(439.835609 116.708431) scale(0.09 -0.09)">
       <defs>
        <path id="ArialMT-31" d="M 2384 0 
L 1822 0 
L 1822 3584 
Q 1619 3391 1289 3197 
Q 959 3003 697 2906 
L 697 3450 
Q 1169 3672 1522 3987 
Q 1875 4303 2022 4600 
L 2384 4600 
L 2384 0 
z
" transform="scale(0.015625)"/>
       </defs>
       <use xlink:href="#ArialMT-31"/>
       <use xlink:href="#ArialMT-30" transform="translate(55.615234 0)"/>
       <use xlink:href="#ArialMT-30" transform="translate(111.230469 0)"/>
      </g>
     </g>
    </g>
    <g id="text_6">
     <!-- L3 method-family agreement rate (%) -->
     <g style="fill: #1f2937" transform="translate(167.958625 130.776869) scale(0.1 -0.1)">
      <defs>
       <path id="ArialMT-4c" d="M 469 0 
L 469 4581 
L 1075 4581 
L 1075 541 
L 3331 541 
L 3331 0 
L 469 0 
z
" transform="scale(0.015625)"/>
       <path id="ArialMT-33" d="M 269 1209 
L 831 1284 
Q 928 806 1161 595 
Q 1394 384 1728 384 
Q 2125 384 2398 659 
Q 2672 934 2672 1341 
Q 2672 1728 2419 1979 
Q 2166 2231 1775 2231 
Q 1616 2231 1378 2169 
L 1441 2663 
Q 1497 2656 1531 2656 
Q 1891 2656 2178 2843 
Q 2466 3031 2466 3422 
Q 2466 3731 2256 3934 
Q 2047 4138 1716 4138 
Q 1388 4138 1169 3931 
Q 950 3725 888 3313 
L 325 3413 
Q 428 3978 793 4289 
Q 1159 4600 1703 4600 
Q 2078 4600 2393 4439 
Q 2709 4278 2876 4000 
Q 3044 3722 3044 3409 
Q 3044 3113 2884 2869 
Q 2725 2625 2413 2481 
Q 2819 2388 3044 2092 
Q 3269 1797 3269 1353 
Q 3269 753 2831 336 
Q 2394 -81 1725 -81 
Q 1122 -81 723 278 
Q 325 638 269 1209 
z
" transform="scale(0.015625)"/>
       <path id="ArialMT-20" transform="scale(0.015625)"/>
       <path id="ArialMT-6d" d="M 422 0 
L 422 3319 
L 925 3319 
L 925 2853 
Q 1081 3097 1340 3245 
Q 1600 3394 1931 3394 
Q 2300 3394 2536 3241 
Q 2772 3088 2869 2813 
Q 3263 3394 3894 3394 
Q 4388 3394 4653 3120 
Q 4919 2847 4919 2278 
L 4919 0 
L 4359 0 
L 4359 2091 
Q 4359 2428 4304 2576 
Q 4250 2725 4106 2815 
Q 3963 2906 3769 2906 
Q 3419 2906 3187 2673 
Q 2956 2441 2956 1928 
L 2956 0 
L 2394 0 
L 2394 2156 
Q 2394 2531 2256 2718 
Q 2119 2906 1806 2906 
Q 1569 2906 1367 2781 
Q 1166 2656 1075 2415 
Q 984 2175 984 1722 
L 984 0 
L 422 0 
z
" transform="scale(0.015625)"/>
       <path id="ArialMT-65" d="M 2694 1069 
L 3275 997 
Q 3138 488 2766 206 
Q 2394 -75 1816 -75 
Q 1088 -75 661 373 
Q 234 822 234 1631 
Q 234 2469 665 2931 
Q 1097 3394 1784 3394 
Q 2450 3394 2872 2941 
Q 3294 2488 3294 1666 
Q 3294 1616 3291 1516 
L 816 1516 
Q 847 969 1125 678 
Q 1403 388 1819 388 
Q 2128 388 2347 550 
Q 2566 713 2694 1069 
z
M 847 1978 
L 2700 1978 
Q 2663 2397 2488 2606 
Q 2219 2931 1791 2931 
Q 1403 2931 1139 2672 
Q 875 2413 847 1978 
z
" transform="scale(0.015625)"/>
       <path id="ArialMT-74" d="M 1650 503 
L 1731 6 
Q 1494 -44 1306 -44 
Q 1000 -44 831 53 
Q 663 150 594 308 
Q 525 466 525 972 
L 525 2881 
L 113 2881 
L 113 3319 
L 525 3319 
L 525 4141 
L 1084 4478 
L 1084 3319 
L 1650 3319 
L 1650 2881 
L 1084 2881 
L 1084 941 
Q 1084 700 1114 631 
Q 1144 563 1211 522 
Q 1278 481 1403 481 
Q 1497 481 1650 503 
z
" transform="scale(0.015625)"/>
       <path id="ArialMT-68" d="M 422 0 
L 422 4581 
L 984 4581 
L 984 2938 
Q 1378 3394 1978 3394 
Q 2347 3394 2619 3248 
Q 2891 3103 3008 2847 
Q 3125 2591 3125 2103 
L 3125 0 
L 2563 0 
L 2563 2103 
Q 2563 2525 2380 2717 
Q 2197 2909 1863 2909 
Q 1613 2909 1392 2779 
Q 1172 2650 1078 2428 
Q 984 2206 984 1816 
L 984 0 
L 422 0 
z
" transform="scale(0.015625)"/>
       <path id="ArialMT-6f" d="M 213 1659 
Q 213 2581 725 3025 
Q 1153 3394 1769 3394 
Q 2453 3394 2887 2945 
Q 3322 2497 3322 1706 
Q 3322 1066 3130 698 
Q 2938 331 2570 128 
Q 2203 -75 1769 -75 
Q 1072 -75 642 372 
Q 213 819 213 1659 
z
M 791 1659 
Q 791 1022 1069 705 
Q 1347 388 1769 388 
Q 2188 388 2466 706 
Q 2744 1025 2744 1678 
Q 2744 2294 2464 2611 
Q 2184 2928 1769 2928 
Q 1347 2928 1069 2612 
Q 791 2297 791 1659 
z
" transform="scale(0.015625)"/>
       <path id="ArialMT-64" d="M 2575 0 
L 2575 419 
Q 2259 -75 1647 -75 
Q 1250 -75 917 144 
Q 584 363 401 755 
Q 219 1147 219 1656 
Q 219 2153 384 2558 
Q 550 2963 881 3178 
Q 1213 3394 1622 3394 
Q 1922 3394 2156 3267 
Q 2391 3141 2538 2938 
L 2538 4581 
L 3097 4581 
L 3097 0 
L 2575 0 
z
M 797 1656 
Q 797 1019 1065 703 
Q 1334 388 1700 388 
Q 2069 388 2326 689 
Q 2584 991 2584 1609 
Q 2584 2291 2321 2609 
Q 2059 2928 1675 2928 
Q 1300 2928 1048 2622 
Q 797 2316 797 1656 
z
" transform="scale(0.015625)"/>
       <path id="ArialMT-2d" d="M 203 1375 
L 203 1941 
L 1931 1941 
L 1931 1375 
L 203 1375 
z
" transform="scale(0.015625)"/>
       <path id="ArialMT-66" d="M 556 0 
L 556 2881 
L 59 2881 
L 59 3319 
L 556 3319 
L 556 3672 
Q 556 4006 616 4169 
Q 697 4388 901 4523 
Q 1106 4659 1475 4659 
Q 1713 4659 2000 4603 
L 1916 4113 
Q 1741 4144 1584 4144 
Q 1328 4144 1222 4034 
Q 1116 3925 1116 3625 
L 1116 3319 
L 1763 3319 
L 1763 2881 
L 1116 2881 
L 1116 0 
L 556 0 
z
" transform="scale(0.015625)"/>
       <path id="ArialMT-61" d="M 2588 409 
Q 2275 144 1986 34 
Q 1697 -75 1366 -75 
Q 819 -75 525 192 
Q 231 459 231 875 
Q 231 1119 342 1320 
Q 453 1522 633 1644 
Q 813 1766 1038 1828 
Q 1203 1872 1538 1913 
Q 2219 1994 2541 2106 
Q 2544 2222 2544 2253 
Q 2544 2597 2384 2738 
Q 2169 2928 1744 2928 
Q 1347 2928 1158 2789 
Q 969 2650 878 2297 
L 328 2372 
Q 403 2725 575 2942 
Q 747 3159 1072 3276 
Q 1397 3394 1825 3394 
Q 2250 3394 2515 3294 
Q 2781 3194 2906 3042 
Q 3031 2891 3081 2659 
Q 3109 2516 3109 2141 
L 3109 1391 
Q 3109 606 3145 398 
Q 3181 191 3288 0 
L 2700 0 
Q 2613 175 2588 409 
z
M 2541 1666 
Q 2234 1541 1622 1453 
Q 1275 1403 1131 1340 
Q 988 1278 909 1158 
Q 831 1038 831 891 
Q 831 666 1001 516 
Q 1172 366 1500 366 
Q 1825 366 2078 508 
Q 2331 650 2450 897 
Q 2541 1088 2541 1459 
L 2541 1666 
z
" transform="scale(0.015625)"/>
       <path id="ArialMT-69" d="M 425 3934 
L 425 4581 
L 988 4581 
L 988 3934 
L 425 3934 
z
M 425 0 
L 425 3319 
L 988 3319 
L 988 0 
L 425 0 
z
" transform="scale(0.015625)"/>
       <path id="ArialMT-6c" d="M 409 0 
L 409 4581 
L 972 4581 
L 972 0 
L 409 0 
z
" transform="scale(0.015625)"/>
       <path id="ArialMT-79" d="M 397 -1278 
L 334 -750 
Q 519 -800 656 -800 
Q 844 -800 956 -737 
Q 1069 -675 1141 -563 
Q 1194 -478 1313 -144 
Q 1328 -97 1363 -6 
L 103 3319 
L 709 3319 
L 1400 1397 
Q 1534 1031 1641 628 
Q 1738 1016 1872 1384 
L 2581 3319 
L 3144 3319 
L 1881 -56 
Q 1678 -603 1566 -809 
Q 1416 -1088 1222 -1217 
Q 1028 -1347 759 -1347 
Q 597 -1347 397 -1278 
z
" transform="scale(0.015625)"/>
       <path id="ArialMT-67" d="M 319 -275 
L 866 -356 
Q 900 -609 1056 -725 
Q 1266 -881 1628 -881 
Q 2019 -881 2231 -725 
Q 2444 -569 2519 -288 
Q 2563 -116 2559 434 
Q 2191 0 1641 0 
Q 956 0 581 494 
Q 206 988 206 1678 
Q 206 2153 378 2554 
Q 550 2956 876 3175 
Q 1203 3394 1644 3394 
Q 2231 3394 2613 2919 
L 2613 3319 
L 3131 3319 
L 3131 450 
Q 3131 -325 2973 -648 
Q 2816 -972 2473 -1159 
Q 2131 -1347 1631 -1347 
Q 1038 -1347 672 -1080 
Q 306 -813 319 -275 
z
M 784 1719 
Q 784 1066 1043 766 
Q 1303 466 1694 466 
Q 2081 466 2343 764 
Q 2606 1063 2606 1700 
Q 2606 2309 2336 2618 
Q 2066 2928 1684 2928 
Q 1309 2928 1046 2623 
Q 784 2319 784 1719 
z
" transform="scale(0.015625)"/>
       <path id="ArialMT-72" d="M 416 0 
L 416 3319 
L 922 3319 
L 922 2816 
Q 1116 3169 1280 3281 
Q 1444 3394 1641 3394 
Q 1925 3394 2219 3213 
L 2025 2691 
Q 1819 2813 1613 2813 
Q 1428 2813 1281 2702 
Q 1134 2591 1072 2394 
Q 978 2094 978 1738 
L 978 0 
L 416 0 
z
" transform="scale(0.015625)"/>
       <path id="ArialMT-6e" d="M 422 0 
L 422 3319 
L 928 3319 
L 928 2847 
Q 1294 3394 1984 3394 
Q 2284 3394 2536 3286 
Q 2788 3178 2913 3003 
Q 3038 2828 3088 2588 
Q 3119 2431 3119 2041 
L 3119 0 
L 2556 0 
L 2556 2019 
Q 2556 2363 2490 2533 
Q 2425 2703 2258 2804 
Q 2091 2906 1866 2906 
Q 1506 2906 1245 2678 
Q 984 2450 984 1813 
L 984 0 
L 422 0 
z
" transform="scale(0.015625)"/>
       <path id="ArialMT-28" d="M 1497 -1347 
Q 1031 -759 709 28 
Q 388 816 388 1659 
Q 388 2403 628 3084 
Q 909 3875 1497 4659 
L 1900 4659 
Q 1522 4009 1400 3731 
Q 1209 3300 1100 2831 
Q 966 2247 966 1656 
Q 966 153 1900 -1347 
L 1497 -1347 
z
" transform="scale(0.015625)"/>
       <path id="ArialMT-25" d="M 372 3481 
Q 372 3972 619 4315 
Q 866 4659 1334 4659 
Q 1766 4659 2048 4351 
Q 2331 4044 2331 3447 
Q 2331 2866 2045 2552 
Q 1759 2238 1341 2238 
Q 925 2238 648 2547 
Q 372 2856 372 3481 
z
M 1350 4272 
Q 1141 4272 1002 4090 
Q 863 3909 863 3425 
Q 863 2984 1003 2804 
Q 1144 2625 1350 2625 
Q 1563 2625 1702 2806 
Q 1841 2988 1841 3469 
Q 1841 3913 1700 4092 
Q 1559 4272 1350 4272 
z
M 1353 -169 
L 3859 4659 
L 4316 4659 
L 1819 -169 
L 1353 -169 
z
M 3334 1075 
Q 3334 1569 3581 1911 
Q 3828 2253 4300 2253 
Q 4731 2253 5014 1945 
Q 5297 1638 5297 1041 
Q 5297 459 5011 145 
Q 4725 -169 4303 -169 
Q 3888 -169 3611 142 
Q 3334 453 3334 1075 
z
M 4316 1866 
Q 4103 1866 3964 1684 
Q 3825 1503 3825 1019 
Q 3825 581 3965 400 
Q 4106 219 4313 219 
Q 4528 219 4667 400 
Q 4806 581 4806 1063 
Q 4806 1506 4665 1686 
Q 4525 1866 4316 1866 
z
" transform="scale(0.015625)"/>
       <path id="ArialMT-29" d="M 791 -1347 
L 388 -1347 
Q 1322 153 1322 1656 
Q 1322 2244 1188 2822 
Q 1081 3291 891 3722 
Q 769 4003 388 4659 
L 791 4659 
Q 1378 3875 1659 3084 
Q 1900 2403 1900 1659 
Q 1900 816 1576 28 
Q 1253 -759 791 -1347 
z
" transform="scale(0.015625)"/>
      </defs>
      <use xlink:href="#ArialMT-4c"/>
      <use xlink:href="#ArialMT-33" transform="translate(55.615234 0)"/>
      <use xlink:href="#ArialMT-20" transform="translate(111.230469 0)"/>
      <use xlink:href="#ArialMT-6d" transform="translate(139.013672 0)"/>
      <use xlink:href="#ArialMT-65" transform="translate(222.314453 0)"/>
      <use xlink:href="#ArialMT-74" transform="translate(277.929688 0)"/>
      <use xlink:href="#ArialMT-68" transform="translate(305.712891 0)"/>
      <use xlink:href="#ArialMT-6f" transform="translate(361.328125 0)"/>
      <use xlink:href="#ArialMT-64" transform="translate(416.943359 0)"/>
      <use xlink:href="#ArialMT-2d" transform="translate(472.558594 0)"/>
      <use xlink:href="#ArialMT-66" transform="translate(505.859375 0)"/>
      <use xlink:href="#ArialMT-61" transform="translate(533.642578 0)"/>
      <use xlink:href="#ArialMT-6d" transform="translate(589.257812 0)"/>
      <use xlink:href="#ArialMT-69" transform="translate(672.558594 0)"/>
      <use xlink:href="#ArialMT-6c" transform="translate(694.775391 0)"/>
      <use xlink:href="#ArialMT-79" transform="translate(716.992188 0)"/>
      <use xlink:href="#ArialMT-20" transform="translate(766.992188 0)"/>
      <use xlink:href="#ArialMT-61" transform="translate(794.775391 0)"/>
      <use xlink:href="#ArialMT-67" transform="translate(850.390625 0)"/>
      <use xlink:href="#ArialMT-72" transform="translate(906.005859 0)"/>
      <use xlink:href="#ArialMT-65" transform="translate(939.306641 0)"/>
      <use xlink:href="#ArialMT-65" transform="translate(994.921875 0)"/>
      <use xlink:href="#ArialMT-6d" transform="translate(1050.537109 0)"/>
      <use xlink:href="#ArialMT-65" transform="translate(1133.837891 0)"/>
      <use xlink:href="#ArialMT-6e" transform="translate(1189.453125 0)"/>
      <use xlink:href="#ArialMT-74" transform="translate(1245.068359 0)"/>
      <use xlink:href="#ArialMT-20" transform="translate(1272.851562 0)"/>
      <use xlink:href="#ArialMT-72" transform="translate(1300.634766 0)"/>
      <use xlink:href="#ArialMT-61" transform="translate(1333.935547 0)"/>
      <use xlink:href="#ArialMT-74" transform="translate(1389.550781 0)"/>
      <use xlink:href="#ArialMT-65" transform="translate(1417.333984 0)"/>
      <use xlink:href="#ArialMT-20" transform="translate(1472.949219 0)"/>
      <use xlink:href="#ArialMT-28" transform="translate(1500.732422 0)"/>
      <use xlink:href="#ArialMT-25" transform="translate(1534.033203 0)"/>
      <use xlink:href="#ArialMT-29" transform="translate(1622.949219 0)"/>
     </g>
    </g>
   </g>
   <g id="matplotlib.axis_2">
    <g id="ytick_1">
     <g id="line2d_11"/>
     <g id="text_7">
      <!-- Event Study -->
      <g style="fill: #1f2937" transform="translate(2.16 14.114521) scale(0.09 -0.09)">
       <defs>
        <path id="ArialMT-45" d="M 506 0 
L 506 4581 
L 3819 4581 
L 3819 4041 
L 1113 4041 
L 1113 2638 
L 3647 2638 
L 3647 2100 
L 1113 2100 
L 1113 541 
L 3925 541 
L 3925 0 
L 506 0 
z
" transform="scale(0.015625)"/>
        <path id="ArialMT-76" d="M 1344 0 
L 81 3319 
L 675 3319 
L 1388 1331 
Q 1503 1009 1600 663 
Q 1675 925 1809 1294 
L 2547 3319 
L 3125 3319 
L 1869 0 
L 1344 0 
z
" transform="scale(0.015625)"/>
        <path id="ArialMT-53" d="M 288 1472 
L 859 1522 
Q 900 1178 1048 958 
Q 1197 738 1509 602 
Q 1822 466 2213 466 
Q 2559 466 2825 569 
Q 3091 672 3220 851 
Q 3350 1031 3350 1244 
Q 3350 1459 3225 1620 
Q 3100 1781 2813 1891 
Q 2628 1963 1997 2114 
Q 1366 2266 1113 2400 
Q 784 2572 623 2826 
Q 463 3081 463 3397 
Q 463 3744 659 4045 
Q 856 4347 1234 4503 
Q 1613 4659 2075 4659 
Q 2584 4659 2973 4495 
Q 3363 4331 3572 4012 
Q 3781 3694 3797 3291 
L 3216 3247 
Q 3169 3681 2898 3903 
Q 2628 4125 2100 4125 
Q 1550 4125 1298 3923 
Q 1047 3722 1047 3438 
Q 1047 3191 1225 3031 
Q 1400 2872 2139 2705 
Q 2878 2538 3153 2413 
Q 3553 2228 3743 1945 
Q 3934 1663 3934 1294 
Q 3934 928 3725 604 
Q 3516 281 3123 101 
Q 2731 -78 2241 -78 
Q 1619 -78 1198 103 
Q 778 284 539 648 
Q 300 1013 288 1472 
z
" transform="scale(0.015625)"/>
        <path id="ArialMT-75" d="M 2597 0 
L 2597 488 
Q 2209 -75 1544 -75 
Q 1250 -75 995 37 
Q 741 150 617 320 
Q 494 491 444 738 
Q 409 903 409 1263 
L 409 3319 
L 972 3319 
L 972 1478 
Q 972 1038 1006 884 
Q 1059 663 1231 536 
Q 1403 409 1656 409 
Q 1909 409 2131 539 
Q 2353 669 2445 892 
Q 2538 1116 2538 1541 
L 2538 3319 
L 3100 3319 
L 3100 0 
L 2597 0 
z
" transform="scale(0.015625)"/>
       </defs>
       <use xlink:href="#ArialMT-45"/>
       <use xlink:href="#ArialMT-76" transform="translate(66.699219 0)"/>
       <use xlink:href="#ArialMT-65" transform="translate(116.699219 0)"/>
       <use xlink:href="#ArialMT-6e" transform="translate(172.314453 0)"/>
       <use xlink:href="#ArialMT-74" transform="translate(227.929688 0)"/>
       <use xlink:href="#ArialMT-20" transform="translate(255.712891 0)"/>
       <use xlink:href="#ArialMT-53" transform="translate(283.496094 0)"/>
       <use xlink:href="#ArialMT-74" transform="translate(350.195312 0)"/>
       <use xlink:href="#ArialMT-75" transform="translate(377.978516 0)"/>
       <use xlink:href="#ArialMT-64" transform="translate(433.59375 0)"/>
       <use xlink:href="#ArialMT-79" transform="translate(489.208984 0)"/>
      </g>
      <!-- $n$=13 -->
      <g style="fill: #1f2937" transform="translate(29.626875 23.739177) scale(0.09 -0.09)">
       <defs>
        <path id="DejaVuSans-Oblique-6e" d="M 3566 2113 
L 3156 0 
L 2578 0 
L 2988 2091 
Q 3016 2238 3031 2350 
Q 3047 2463 3047 2528 
Q 3047 2791 2881 2937 
Q 2716 3084 2419 3084 
Q 1956 3084 1622 2776 
Q 1288 2469 1184 1941 
L 800 0 
L 225 0 
L 903 3500 
L 1478 3500 
L 1363 2950 
Q 1603 3253 1940 3418 
Q 2278 3584 2650 3584 
Q 3113 3584 3367 3334 
Q 3622 3084 3622 2631 
Q 3622 2519 3608 2391 
Q 3594 2263 3566 2113 
z
" transform="scale(0.015625)"/>
        <path id="ArialMT-3d" d="M 3381 2694 
L 356 2694 
L 356 3219 
L 3381 3219 
L 3381 2694 
z
M 3381 1303 
L 356 1303 
L 356 1828 
L 3381 1828 
L 3381 1303 
z
" transform="scale(0.015625)"/>
       </defs>
       <use xlink:href="#DejaVuSans-Oblique-6e" transform="translate(0 0.125)"/>
       <use xlink:href="#ArialMT-3d" transform="translate(63.378906 0.125)"/>
       <use xlink:href="#ArialMT-31" transform="translate(121.777344 0.125)"/>
       <use xlink:href="#ArialMT-33" transform="translate(177.392578 0.125)"/>
      </g>
     </g>
    </g>
    <g id="ytick_2">
     <g id="line2d_12"/>
     <g id="text_8">
      <!-- DID -->
      <g style="fill: #1f2937" transform="translate(35.187188 37.470204) scale(0.09 -0.09)">
       <defs>
        <path id="ArialMT-44" d="M 494 0 
L 494 4581 
L 2072 4581 
Q 2606 4581 2888 4516 
Q 3281 4425 3559 4188 
Q 3922 3881 4101 3404 
Q 4281 2928 4281 2316 
Q 4281 1794 4159 1391 
Q 4038 988 3847 723 
Q 3656 459 3429 307 
Q 3203 156 2883 78 
Q 2563 0 2147 0 
L 494 0 
z
M 1100 541 
L 2078 541 
Q 2531 541 2789 625 
Q 3047 709 3200 863 
Q 3416 1078 3536 1442 
Q 3656 1806 3656 2325 
Q 3656 3044 3420 3430 
Q 3184 3816 2847 3947 
Q 2603 4041 2063 4041 
L 1100 4041 
L 1100 541 
z
" transform="scale(0.015625)"/>
        <path id="ArialMT-49" d="M 597 0 
L 597 4581 
L 1203 4581 
L 1203 0 
L 597 0 
z
" transform="scale(0.015625)"/>
       </defs>
       <use xlink:href="#ArialMT-44"/>
       <use xlink:href="#ArialMT-49" transform="translate(72.216797 0)"/>
       <use xlink:href="#ArialMT-44" transform="translate(100 0)"/>
      </g>
      <!-- $n$=101 -->
      <g style="fill: #1f2937" transform="translate(24.676875 46.989392) scale(0.09 -0.09)">
       <use xlink:href="#DejaVuSans-Oblique-6e" transform="translate(0 0.125)"/>
       <use xlink:href="#ArialMT-3d" transform="translate(63.378906 0.125)"/>
       <use xlink:href="#ArialMT-31" transform="translate(121.777344 0.125)"/>
       <use xlink:href="#ArialMT-30" transform="translate(177.392578 0.125)"/>
       <use xlink:href="#ArialMT-31" transform="translate(233.007812 0.125)"/>
      </g>
     </g>
    </g>
    <g id="ytick_3">
     <g id="line2d_13"/>
     <g id="text_9">
      <!-- IV -->
      <g style="fill: #1f2937" transform="translate(42.183281 60.827997) scale(0.09 -0.09)">
       <defs>
        <path id="ArialMT-56" d="M 1803 0 
L 28 4581 
L 684 4581 
L 1875 1253 
Q 2019 853 2116 503 
Q 2222 878 2363 1253 
L 3600 4581 
L 4219 4581 
L 2425 0 
L 1803 0 
z
" transform="scale(0.015625)"/>
       </defs>
       <use xlink:href="#ArialMT-49"/>
       <use xlink:href="#ArialMT-56" transform="translate(27.783203 0)"/>
      </g>
      <!-- $n$=32 -->
      <g style="fill: #1f2937" transform="translate(29.626875 70.347185) scale(0.09 -0.09)">
       <use xlink:href="#DejaVuSans-Oblique-6e" transform="translate(0 0.125)"/>
       <use xlink:href="#ArialMT-3d" transform="translate(63.378906 0.125)"/>
       <use xlink:href="#ArialMT-33" transform="translate(121.777344 0.125)"/>
       <use xlink:href="#ArialMT-32" transform="translate(177.392578 0.125)"/>
      </g>
     </g>
    </g>
    <g id="ytick_4">
     <g id="line2d_14"/>
     <g id="text_10">
      <!-- RDD -->
      <g style="fill: #1f2937" transform="translate(31.187812 84.185791) scale(0.09 -0.09)">
       <defs>
        <path id="ArialMT-52" d="M 503 0 
L 503 4581 
L 2534 4581 
Q 3147 4581 3465 4457 
Q 3784 4334 3975 4021 
Q 4166 3709 4166 3331 
Q 4166 2844 3850 2509 
Q 3534 2175 2875 2084 
Q 3116 1969 3241 1856 
Q 3506 1613 3744 1247 
L 4541 0 
L 3778 0 
L 3172 953 
Q 2906 1366 2734 1584 
Q 2563 1803 2427 1890 
Q 2291 1978 2150 2013 
Q 2047 2034 1813 2034 
L 1109 2034 
L 1109 0 
L 503 0 
z
M 1109 2559 
L 2413 2559 
Q 2828 2559 3062 2645 
Q 3297 2731 3419 2920 
Q 3541 3109 3541 3331 
Q 3541 3656 3305 3865 
Q 3069 4075 2559 4075 
L 1109 4075 
L 1109 2559 
z
" transform="scale(0.015625)"/>
       </defs>
       <use xlink:href="#ArialMT-52"/>
       <use xlink:href="#ArialMT-44" transform="translate(72.216797 0)"/>
       <use xlink:href="#ArialMT-44" transform="translate(144.433594 0)"/>
      </g>
      <!-- $n$=41 -->
      <g style="fill: #1f2937" transform="translate(29.626875 93.704978) scale(0.09 -0.09)">
       <defs>
        <path id="ArialMT-34" d="M 2069 0 
L 2069 1097 
L 81 1097 
L 81 1613 
L 2172 4581 
L 2631 4581 
L 2631 1613 
L 3250 1613 
L 3250 1097 
L 2631 1097 
L 2631 0 
L 2069 0 
z
M 2069 1613 
L 2069 3678 
L 634 1613 
L 2069 1613 
z
" transform="scale(0.015625)"/>
       </defs>
       <use xlink:href="#DejaVuSans-Oblique-6e" transform="translate(0 0.125)"/>
       <use xlink:href="#ArialMT-3d" transform="translate(63.378906 0.125)"/>
       <use xlink:href="#ArialMT-34" transform="translate(121.777344 0.125)"/>
       <use xlink:href="#ArialMT-31" transform="translate(177.392578 0.125)"/>
      </g>
     </g>
    </g>
   </g>
   <g id="patch_3">
    <path d="M 54.186875 103.7664 
L 447.342875 103.7664 
" style="fill: none; stroke: #94a3b8; stroke-width: 0.65; stroke-linejoin: miter; stroke-linecap: square"/>
   </g>
   <g id="PathCollection_1">
    <defs>
     <path id="md3b257e8ab" d="M 0 4.1833 
C 1.109424 4.1833 2.173559 3.742521 2.95804 2.95804 
C 3.742521 2.173559 4.1833 1.109424 4.1833 0 
C 4.1833 -1.109424 3.742521 -2.173559 2.95804 -2.95804 
C 2.173559 -3.742521 1.109424 -4.1833 0 -4.1833 
C -1.109424 -4.1833 -2.173559 -3.742521 -2.95804 -2.95804 
C -3.742521 -2.173559 -4.1833 -1.109424 -4.1833 0 
C -4.1833 1.109424 -3.742521 2.173559 -2.95804 2.95804 
C -2.173559 3.742521 -1.109424 4.1833 0 4.1833 
z
" style="stroke: #000000; stroke-opacity: 0.95; stroke-width: 0.7"/>
    </defs>
    <g clip-path="url(#p05935d6e82)">
     <use xlink:href="#md3b257e8ab" x="356.614567" y="11.736695" style="fill: #e69f00; fill-opacity: 0.95; stroke: #000000; stroke-opacity: 0.95; stroke-width: 0.7"/>
    </g>
   </g>
   <g id="PathCollection_2">
    <defs>
     <path id="mfc74225fa9" d="M 0 -4.1833 
L -0.939209 -1.292711 
L -3.978555 -1.292711 
L -1.519673 0.493772 
L -2.458882 3.384361 
L -0 1.597878 
L 2.458882 3.384361 
L 1.519673 0.493772 
L 3.978555 -1.292711 
L 0.939209 -1.292711 
z
" style="stroke: #000000; stroke-opacity: 0.95; stroke-width: 0.7"/>
    </defs>
    <g clip-path="url(#p05935d6e82)">
     <use xlink:href="#mfc74225fa9" x="296.129029" y="12.826726" style="fill: #0072b2; fill-opacity: 0.95; stroke: #000000; stroke-opacity: 0.95; stroke-width: 0.7"/>
    </g>
   </g>
   <g id="PathCollection_3">
    <defs>
     <path id="mca1a16fab0" d="M -4.1833 4.1833 
L 4.1833 4.1833 
L 4.1833 -4.1833 
L -4.1833 -4.1833 
z
" style="stroke: #000000; stroke-opacity: 0.95; stroke-width: 0.7"/>
    </defs>
    <g clip-path="url(#p05935d6e82)">
     <use xlink:href="#mca1a16fab0" x="386.857337" y="13.916756" style="fill: #56b4e9; fill-opacity: 0.95; stroke: #000000; stroke-opacity: 0.95; stroke-width: 0.7"/>
    </g>
   </g>
   <g id="PathCollection_4">
    <defs>
     <path id="mcdfc8223f6" d="M 0 -4.1833 
L -4.1833 4.1833 
L 4.1833 4.1833 
z
" style="stroke: #000000; stroke-opacity: 0.95; stroke-width: 0.7"/>
    </defs>
    <g clip-path="url(#p05935d6e82)">
     <use xlink:href="#mcdfc8223f6" x="296.129029" y="15.006786" style="fill: #cc79a7; fill-opacity: 0.95; stroke: #000000; stroke-opacity: 0.95; stroke-width: 0.7"/>
    </g>
   </g>
   <g id="PathCollection_5">
    <defs>
     <path id="m717839bdb2" d="M -0 5.91608 
L 5.91608 0 
L 0 -5.91608 
L -5.91608 -0 
z
" style="stroke: #000000; stroke-opacity: 0.95; stroke-width: 0.7"/>
    </defs>
    <g clip-path="url(#p05935d6e82)">
     <use xlink:href="#m717839bdb2" x="265.88626" y="16.096817" style="fill: #009e73; fill-opacity: 0.95; stroke: #000000; stroke-opacity: 0.95; stroke-width: 0.7"/>
    </g>
   </g>
   <g id="PathCollection_6">
    <defs>
     <path id="me1d0db6f6a" d="M -2.09165 4.1833 
L 0 2.09165 
L 2.09165 4.1833 
L 4.1833 2.09165 
L 2.09165 0 
L 4.1833 -2.09165 
L 2.09165 -4.1833 
L 0 -2.09165 
L -2.09165 -4.1833 
L -4.1833 -2.09165 
L -2.09165 0 
L -4.1833 2.09165 
z
" style="stroke: #000000; stroke-opacity: 0.95; stroke-width: 0.7"/>
    </defs>
    <g clip-path="url(#p05935d6e82)">
     <use xlink:href="#me1d0db6f6a" x="235.64349" y="17.186847" style="fill: #f0e442; fill-opacity: 0.95; stroke: #000000; stroke-opacity: 0.95; stroke-width: 0.7"/>
    </g>
   </g>
   <g id="PathCollection_7">
    <defs>
     <path id="m739c98e8c7" d="M -1.394433 4.1833 
L 1.394433 4.1833 
L 1.394433 1.394433 
L 4.1833 1.394433 
L 4.1833 -1.394433 
L 1.394433 -1.394433 
L 1.394433 -4.1833 
L -1.394433 -4.1833 
L -1.394433 -1.394433 
L -4.1833 -1.394433 
L -4.1833 1.394433 
L -1.394433 1.394433 
z
" style="stroke: #000000; stroke-opacity: 0.95; stroke-width: 0.7"/>
    </defs>
    <g clip-path="url(#p05935d6e82)">
     <use xlink:href="#m739c98e8c7" x="296.129029" y="18.276877" style="fill: #d55e00; fill-opacity: 0.95; stroke: #000000; stroke-opacity: 0.95; stroke-width: 0.7"/>
    </g>
   </g>
   <g id="PathCollection_8">
    <g clip-path="url(#p05935d6e82)">
     <use xlink:href="#md3b257e8ab" x="322.778598" y="35.094488" style="fill: #e69f00; fill-opacity: 0.95; stroke: #000000; stroke-opacity: 0.95; stroke-width: 0.7"/>
    </g>
   </g>
   <g id="PathCollection_9">
    <g clip-path="url(#p05935d6e82)">
     <use xlink:href="#mfc74225fa9" x="283.852261" y="36.184519" style="fill: #0072b2; fill-opacity: 0.95; stroke: #000000; stroke-opacity: 0.95; stroke-width: 0.7"/>
    </g>
   </g>
   <g id="PathCollection_10">
    <g clip-path="url(#p05935d6e82)">
     <use xlink:href="#mca1a16fab0" x="408.416538" y="37.274549" style="fill: #56b4e9; fill-opacity: 0.95; stroke: #000000; stroke-opacity: 0.95; stroke-width: 0.7"/>
    </g>
   </g>
   <g id="PathCollection_11">
    <g clip-path="url(#p05935d6e82)">
     <use xlink:href="#mcdfc8223f6" x="361.704934" y="38.364579" style="fill: #cc79a7; fill-opacity: 0.95; stroke: #000000; stroke-opacity: 0.95; stroke-width: 0.7"/>
    </g>
   </g>
   <g id="PathCollection_12">
    <g clip-path="url(#p05935d6e82)">
     <use xlink:href="#m717839bdb2" x="357.812301" y="39.45461" style="fill: #009e73; fill-opacity: 0.95; stroke: #000000; stroke-opacity: 0.95; stroke-width: 0.7"/>
    </g>
   </g>
   <g id="PathCollection_13">
    <g clip-path="url(#p05935d6e82)">
     <use xlink:href="#me1d0db6f6a" x="338.349132" y="40.54464" style="fill: #f0e442; fill-opacity: 0.95; stroke: #000000; stroke-opacity: 0.95; stroke-width: 0.7"/>
    </g>
   </g>
   <g id="PathCollection_14">
    <g clip-path="url(#p05935d6e82)">
     <use xlink:href="#m739c98e8c7" x="435.664974" y="41.63467" style="fill: #d55e00; fill-opacity: 0.95; stroke: #000000; stroke-opacity: 0.95; stroke-width: 0.7"/>
    </g>
   </g>
   <g id="PathCollection_15">
    <g clip-path="url(#p05935d6e82)">
     <use xlink:href="#md3b257e8ab" x="410.4845" y="58.452281" style="fill: #e69f00; fill-opacity: 0.95; stroke: #000000; stroke-opacity: 0.95; stroke-width: 0.7"/>
    </g>
   </g>
   <g id="PathCollection_16">
    <g clip-path="url(#p05935d6e82)">
     <use xlink:href="#mfc74225fa9" x="398.198375" y="59.542312" style="fill: #0072b2; fill-opacity: 0.95; stroke: #000000; stroke-opacity: 0.95; stroke-width: 0.7"/>
    </g>
   </g>
   <g id="PathCollection_17">
    <g clip-path="url(#p05935d6e82)">
     <use xlink:href="#mca1a16fab0" x="373.626125" y="60.632342" style="fill: #56b4e9; fill-opacity: 0.95; stroke: #000000; stroke-opacity: 0.95; stroke-width: 0.7"/>
    </g>
   </g>
   <g id="PathCollection_18">
    <g clip-path="url(#p05935d6e82)">
     <use xlink:href="#mcdfc8223f6" x="398.198375" y="61.722372" style="fill: #cc79a7; fill-opacity: 0.95; stroke: #000000; stroke-opacity: 0.95; stroke-width: 0.7"/>
    </g>
   </g>
   <g id="PathCollection_19">
    <g clip-path="url(#p05935d6e82)">
     <use xlink:href="#m717839bdb2" x="398.198375" y="62.812403" style="fill: #009e73; fill-opacity: 0.95; stroke: #000000; stroke-opacity: 0.95; stroke-width: 0.7"/>
    </g>
   </g>
   <g id="PathCollection_20">
    <g clip-path="url(#p05935d6e82)">
     <use xlink:href="#me1d0db6f6a" x="422.770625" y="63.902433" style="fill: #f0e442; fill-opacity: 0.95; stroke: #000000; stroke-opacity: 0.95; stroke-width: 0.7"/>
    </g>
   </g>
   <g id="PathCollection_21">
    <g clip-path="url(#p05935d6e82)">
     <use xlink:href="#m739c98e8c7" x="275.337125" y="64.992463" style="fill: #d55e00; fill-opacity: 0.95; stroke: #000000; stroke-opacity: 0.95; stroke-width: 0.7"/>
    </g>
   </g>
   <g id="PathCollection_22">
    <g clip-path="url(#p05935d6e82)">
     <use xlink:href="#md3b257e8ab" x="418.575363" y="81.810074" style="fill: #e69f00; fill-opacity: 0.95; stroke: #000000; stroke-opacity: 0.95; stroke-width: 0.7"/>
    </g>
   </g>
   <g id="PathCollection_23">
    <g clip-path="url(#p05935d6e82)">
     <use xlink:href="#mfc74225fa9" x="351.451168" y="82.900105" style="fill: #0072b2; fill-opacity: 0.95; stroke: #000000; stroke-opacity: 0.95; stroke-width: 0.7"/>
    </g>
   </g>
   <g id="PathCollection_24">
    <g clip-path="url(#p05935d6e82)">
     <use xlink:href="#mca1a16fab0" x="418.575363" y="83.990135" style="fill: #56b4e9; fill-opacity: 0.95; stroke: #000000; stroke-opacity: 0.95; stroke-width: 0.7"/>
    </g>
   </g>
   <g id="PathCollection_25">
    <g clip-path="url(#p05935d6e82)">
     <use xlink:href="#mcdfc8223f6" x="399.397021" y="85.080166" style="fill: #cc79a7; fill-opacity: 0.95; stroke: #000000; stroke-opacity: 0.95; stroke-width: 0.7"/>
    </g>
   </g>
   <g id="PathCollection_26">
    <g clip-path="url(#p05935d6e82)">
     <use xlink:href="#m717839bdb2" x="370.629509" y="86.170196" style="fill: #009e73; fill-opacity: 0.95; stroke: #000000; stroke-opacity: 0.95; stroke-width: 0.7"/>
    </g>
   </g>
   <g id="PathCollection_27">
    <g clip-path="url(#p05935d6e82)">
     <use xlink:href="#me1d0db6f6a" x="399.397021" y="87.260226" style="fill: #f0e442; fill-opacity: 0.95; stroke: #000000; stroke-opacity: 0.95; stroke-width: 0.7"/>
    </g>
   </g>
   <g id="PathCollection_28">
    <g clip-path="url(#p05935d6e82)">
     <use xlink:href="#m739c98e8c7" x="341.861997" y="88.350257" style="fill: #d55e00; fill-opacity: 0.95; stroke: #000000; stroke-opacity: 0.95; stroke-width: 0.7"/>
    </g>
   </g>
   <g id="LineCollection_1">
    <path d="M 248.604677 15.006786 
L 360.934963 15.006786 
" clip-path="url(#p05935d6e82)" style="fill: none; stroke: #374151; stroke-opacity: 0.92"/>
   </g>
   <g id="line2d_15">
    <defs>
     <path id="ma8bd228a2e" d="M 0 2.6 
L 0 -2.6 
" style="stroke: #374151; stroke-opacity: 0.92; stroke-width: 0.85"/>
    </defs>
    <g clip-path="url(#p05935d6e82)">
     <use xlink:href="#ma8bd228a2e" x="248.604677" y="15.006786" style="fill: #1f77b4; fill-opacity: 0.92; stroke: #374151; stroke-opacity: 0.92; stroke-width: 0.85"/>
    </g>
   </g>
   <g id="line2d_16">
    <g clip-path="url(#p05935d6e82)">
     <use xlink:href="#ma8bd228a2e" x="360.934963" y="15.006786" style="fill: #1f77b4; fill-opacity: 0.92; stroke: #374151; stroke-opacity: 0.92; stroke-width: 0.85"/>
    </g>
   </g>
   <g id="text_11">
    <!-- 64% -->
    <g style="fill: #374151" transform="translate(295.763492 25.448817) scale(0.09 -0.09)">
     <defs>
      <path id="Arial-BoldMT-36" d="M 3247 3459 
L 2397 3366 
Q 2366 3628 2234 3753 
Q 2103 3878 1894 3878 
Q 1616 3878 1423 3628 
Q 1231 3378 1181 2588 
Q 1509 2975 1997 2975 
Q 2547 2975 2939 2556 
Q 3331 2138 3331 1475 
Q 3331 772 2918 347 
Q 2506 -78 1859 -78 
Q 1166 -78 719 461 
Q 272 1000 272 2228 
Q 272 3488 737 4044 
Q 1203 4600 1947 4600 
Q 2469 4600 2811 4308 
Q 3153 4016 3247 3459 
z
M 1256 1544 
Q 1256 1116 1453 883 
Q 1650 650 1903 650 
Q 2147 650 2309 840 
Q 2472 1031 2472 1466 
Q 2472 1913 2297 2120 
Q 2122 2328 1859 2328 
Q 1606 2328 1431 2129 
Q 1256 1931 1256 1544 
z
" transform="scale(0.015625)"/>
      <path id="Arial-BoldMT-34" d="M 1994 0 
L 1994 922 
L 119 922 
L 119 1691 
L 2106 4600 
L 2844 4600 
L 2844 1694 
L 3413 1694 
L 3413 922 
L 2844 922 
L 2844 0 
L 1994 0 
z
M 1994 1694 
L 1994 3259 
L 941 1694 
L 1994 1694 
z
" transform="scale(0.015625)"/>
      <path id="Arial-BoldMT-25" d="M 278 3450 
Q 278 4066 548 4362 
Q 819 4659 1281 4659 
Q 1759 4659 2029 4364 
Q 2300 4069 2300 3450 
Q 2300 2834 2029 2537 
Q 1759 2241 1297 2241 
Q 819 2241 548 2536 
Q 278 2831 278 3450 
z
M 963 3456 
Q 963 3009 1066 2856 
Q 1144 2744 1281 2744 
Q 1422 2744 1500 2856 
Q 1600 3009 1600 3456 
Q 1600 3903 1500 4053 
Q 1422 4169 1281 4169 
Q 1144 4169 1066 4056 
Q 963 3903 963 3456 
z
M 1950 -175 
L 1300 -175 
L 3741 4659 
L 4372 4659 
L 1950 -175 
z
M 3369 1028 
Q 3369 1644 3639 1941 
Q 3909 2238 4378 2238 
Q 4850 2238 5120 1941 
Q 5391 1644 5391 1028 
Q 5391 409 5120 112 
Q 4850 -184 4388 -184 
Q 3909 -184 3639 112 
Q 3369 409 3369 1028 
z
M 4053 1031 
Q 4053 584 4156 434 
Q 4234 319 4372 319 
Q 4513 319 4588 431 
Q 4691 584 4691 1031 
Q 4691 1478 4591 1631 
Q 4513 1744 4372 1744 
Q 4231 1744 4156 1631 
Q 4053 1478 4053 1031 
z
" transform="scale(0.015625)"/>
     </defs>
     <use xlink:href="#Arial-BoldMT-36"/>
     <use xlink:href="#Arial-BoldMT-34" transform="translate(55.615234 0)"/>
     <use xlink:href="#Arial-BoldMT-25" transform="translate(111.230469 0)"/>
    </g>
   </g>
   <g id="LineCollection_2">
    <path d="M 338.905223 38.364579 
L 376.719379 38.364579 
" clip-path="url(#p05935d6e82)" style="fill: none; stroke: #374151; stroke-opacity: 0.92"/>
   </g>
   <g id="line2d_17">
    <defs>
     <path id="m694510b977" d="M 0 2.6 
L 0 -2.6 
" style="stroke: #374151; stroke-opacity: 0.92; stroke-width: 0.85"/>
    </defs>
    <g clip-path="url(#p05935d6e82)">
     <use xlink:href="#m694510b977" x="338.905223" y="38.364579" style="fill: #ff7f0e; fill-opacity: 0.92; stroke: #374151; stroke-opacity: 0.92; stroke-width: 0.85"/>
    </g>
   </g>
   <g id="line2d_18">
    <g clip-path="url(#p05935d6e82)">
     <use xlink:href="#m694510b977" x="376.719379" y="38.364579" style="fill: #ff7f0e; fill-opacity: 0.92; stroke: #374151; stroke-opacity: 0.92; stroke-width: 0.85"/>
    </g>
   </g>
   <g id="text_12">
    <!-- 77% -->
    <g style="fill: #374151" transform="translate(349.362063 48.806611) scale(0.09 -0.09)">
     <defs>
      <path id="Arial-BoldMT-37" d="M 272 3703 
L 272 4519 
L 3275 4519 
L 3275 3881 
Q 2903 3516 2518 2831 
Q 2134 2147 1932 1376 
Q 1731 606 1734 0 
L 888 0 
Q 909 950 1279 1937 
Q 1650 2925 2269 3703 
L 272 3703 
z
" transform="scale(0.015625)"/>
     </defs>
     <use xlink:href="#Arial-BoldMT-37"/>
     <use xlink:href="#Arial-BoldMT-37" transform="translate(55.615234 0)"/>
     <use xlink:href="#Arial-BoldMT-25" transform="translate(111.230469 0)"/>
    </g>
   </g>
   <g id="LineCollection_3">
    <path d="M 356.074518 61.722372 
L 405.219018 61.722372 
" clip-path="url(#p05935d6e82)" style="fill: none; stroke: #374151; stroke-opacity: 0.92"/>
   </g>
   <g id="line2d_19">
    <defs>
     <path id="mc525a572aa" d="M 0 2.6 
L 0 -2.6 
" style="stroke: #374151; stroke-opacity: 0.92; stroke-width: 0.85"/>
    </defs>
    <g clip-path="url(#p05935d6e82)">
     <use xlink:href="#mc525a572aa" x="356.074518" y="61.722372" style="fill: #2ca02c; fill-opacity: 0.92; stroke: #374151; stroke-opacity: 0.92; stroke-width: 0.85"/>
    </g>
   </g>
   <g id="line2d_20">
    <g clip-path="url(#p05935d6e82)">
     <use xlink:href="#mc525a572aa" x="405.219018" y="61.722372" style="fill: #2ca02c; fill-opacity: 0.92; stroke: #374151; stroke-opacity: 0.92; stroke-width: 0.85"/>
    </g>
   </g>
   <g id="text_13">
    <!-- 83% -->
    <g style="fill: #374151" transform="translate(373.3956 72.164404) scale(0.09 -0.09)">
     <defs>
      <path id="Arial-BoldMT-38" d="M 1025 2472 
Q 684 2616 529 2867 
Q 375 3119 375 3419 
Q 375 3931 733 4265 
Q 1091 4600 1750 4600 
Q 2403 4600 2764 4265 
Q 3125 3931 3125 3419 
Q 3125 3100 2959 2851 
Q 2794 2603 2494 2472 
Q 2875 2319 3073 2025 
Q 3272 1731 3272 1347 
Q 3272 713 2867 316 
Q 2463 -81 1791 -81 
Q 1166 -81 750 247 
Q 259 634 259 1309 
Q 259 1681 443 1992 
Q 628 2303 1025 2472 
z
M 1206 3356 
Q 1206 3094 1354 2947 
Q 1503 2800 1750 2800 
Q 2000 2800 2150 2948 
Q 2300 3097 2300 3359 
Q 2300 3606 2151 3754 
Q 2003 3903 1759 3903 
Q 1506 3903 1356 3753 
Q 1206 3603 1206 3356 
z
M 1125 1394 
Q 1125 1031 1311 828 
Q 1497 625 1775 625 
Q 2047 625 2225 820 
Q 2403 1016 2403 1384 
Q 2403 1706 2222 1901 
Q 2041 2097 1763 2097 
Q 1441 2097 1283 1875 
Q 1125 1653 1125 1394 
z
" transform="scale(0.015625)"/>
      <path id="Arial-BoldMT-33" d="M 241 1216 
L 1091 1319 
Q 1131 994 1309 822 
Q 1488 650 1741 650 
Q 2013 650 2198 856 
Q 2384 1063 2384 1413 
Q 2384 1744 2206 1937 
Q 2028 2131 1772 2131 
Q 1603 2131 1369 2066 
L 1466 2781 
Q 1822 2772 2009 2936 
Q 2197 3100 2197 3372 
Q 2197 3603 2059 3740 
Q 1922 3878 1694 3878 
Q 1469 3878 1309 3722 
Q 1150 3566 1116 3266 
L 306 3403 
Q 391 3819 561 4067 
Q 731 4316 1036 4458 
Q 1341 4600 1719 4600 
Q 2366 4600 2756 4188 
Q 3078 3850 3078 3425 
Q 3078 2822 2419 2463 
Q 2813 2378 3048 2084 
Q 3284 1791 3284 1375 
Q 3284 772 2843 347 
Q 2403 -78 1747 -78 
Q 1125 -78 715 280 
Q 306 638 241 1216 
z
" transform="scale(0.015625)"/>
     </defs>
     <use xlink:href="#Arial-BoldMT-38"/>
     <use xlink:href="#Arial-BoldMT-33" transform="translate(55.615234 0)"/>
     <use xlink:href="#Arial-BoldMT-25" transform="translate(111.230469 0)"/>
    </g>
   </g>
   <g id="LineCollection_4">
    <path d="M 355.560812 85.080166 
L 411.725955 85.080166 
" clip-path="url(#p05935d6e82)" style="fill: none; stroke: #374151; stroke-opacity: 0.92"/>
   </g>
   <g id="line2d_21">
    <defs>
     <path id="m0034997cbd" d="M 0 2.6 
L 0 -2.6 
" style="stroke: #374151; stroke-opacity: 0.92; stroke-width: 0.85"/>
    </defs>
    <g clip-path="url(#p05935d6e82)">
     <use xlink:href="#m0034997cbd" x="355.560812" y="85.080166" style="fill: #d62728; fill-opacity: 0.92; stroke: #374151; stroke-opacity: 0.92; stroke-width: 0.85"/>
    </g>
   </g>
   <g id="line2d_22">
    <g clip-path="url(#p05935d6e82)">
     <use xlink:href="#m0034997cbd" x="411.725955" y="85.080166" style="fill: #d62728; fill-opacity: 0.92; stroke: #374151; stroke-opacity: 0.92; stroke-width: 0.85"/>
    </g>
   </g>
   <g id="text_14">
    <!-- 84% -->
    <g style="fill: #374151" transform="translate(376.691878 95.522197) scale(0.09 -0.09)">
     <use xlink:href="#Arial-BoldMT-38"/>
     <use xlink:href="#Arial-BoldMT-34" transform="translate(55.615234 0)"/>
     <use xlink:href="#Arial-BoldMT-25" transform="translate(111.230469 0)"/>
    </g>
   </g>
   <g id="legend_1">
    <g id="line2d_23">
     <path d="M 66.0005 142.271728 
L 70.5005 142.271728 
L 75.0005 142.271728 
" style="fill: none; stroke: #374151; stroke-width: 1.2; stroke-linecap: square"/>
     <defs>
      <path id="m092916fd9f" d="M -0 3.676955 
L 3.676955 0 
L 0 -3.676955 
L -3.676955 -0 
z
" style="stroke: #374151; stroke-linejoin: miter"/>
     </defs>
     <g>
      <use xlink:href="#m092916fd9f" x="70.5005" y="142.271728" style="fill: #ffffff; stroke: #374151; stroke-linejoin: miter"/>
     </g>
    </g>
    <g id="text_15">
     <!-- Mean + 95% CI -->
     <g transform="translate(77.2505 145.421728) scale(0.09 -0.09)">
      <defs>
       <path id="ArialMT-4d" d="M 475 0 
L 475 4581 
L 1388 4581 
L 2472 1338 
Q 2622 884 2691 659 
Q 2769 909 2934 1394 
L 4031 4581 
L 4847 4581 
L 4847 0 
L 4263 0 
L 4263 3834 
L 2931 0 
L 2384 0 
L 1059 3900 
L 1059 0 
L 475 0 
z
" transform="scale(0.015625)"/>
       <path id="ArialMT-2b" d="M 1603 741 
L 1603 1997 
L 356 1997 
L 356 2522 
L 1603 2522 
L 1603 3769 
L 2134 3769 
L 2134 2522 
L 3381 2522 
L 3381 1997 
L 2134 1997 
L 2134 741 
L 1603 741 
z
" transform="scale(0.015625)"/>
       <path id="ArialMT-39" d="M 350 1059 
L 891 1109 
Q 959 728 1153 556 
Q 1347 384 1650 384 
Q 1909 384 2104 503 
Q 2300 622 2425 820 
Q 2550 1019 2634 1356 
Q 2719 1694 2719 2044 
Q 2719 2081 2716 2156 
Q 2547 1888 2255 1720 
Q 1963 1553 1622 1553 
Q 1053 1553 659 1965 
Q 266 2378 266 3053 
Q 266 3750 677 4175 
Q 1088 4600 1706 4600 
Q 2153 4600 2523 4359 
Q 2894 4119 3086 3673 
Q 3278 3228 3278 2384 
Q 3278 1506 3087 986 
Q 2897 466 2520 194 
Q 2144 -78 1638 -78 
Q 1100 -78 759 220 
Q 419 519 350 1059 
z
M 2653 3081 
Q 2653 3566 2395 3850 
Q 2138 4134 1775 4134 
Q 1400 4134 1122 3828 
Q 844 3522 844 3034 
Q 844 2597 1108 2323 
Q 1372 2050 1759 2050 
Q 2150 2050 2401 2323 
Q 2653 2597 2653 3081 
z
" transform="scale(0.015625)"/>
       <path id="ArialMT-43" d="M 3763 1606 
L 4369 1453 
Q 4178 706 3683 314 
Q 3188 -78 2472 -78 
Q 1731 -78 1267 223 
Q 803 525 561 1097 
Q 319 1669 319 2325 
Q 319 3041 592 3573 
Q 866 4106 1370 4382 
Q 1875 4659 2481 4659 
Q 3169 4659 3637 4309 
Q 4106 3959 4291 3325 
L 3694 3184 
Q 3534 3684 3231 3912 
Q 2928 4141 2469 4141 
Q 1941 4141 1586 3887 
Q 1231 3634 1087 3207 
Q 944 2781 944 2328 
Q 944 1744 1114 1308 
Q 1284 872 1643 656 
Q 2003 441 2422 441 
Q 2931 441 3284 734 
Q 3638 1028 3763 1606 
z
" transform="scale(0.015625)"/>
      </defs>
      <use xlink:href="#ArialMT-4d"/>
      <use xlink:href="#ArialMT-65" transform="translate(83.300781 0)"/>
      <use xlink:href="#ArialMT-61" transform="translate(138.916016 0)"/>
      <use xlink:href="#ArialMT-6e" transform="translate(194.53125 0)"/>
      <use xlink:href="#ArialMT-20" transform="translate(250.146484 0)"/>
      <use xlink:href="#ArialMT-2b" transform="translate(277.929688 0)"/>
      <use xlink:href="#ArialMT-20" transform="translate(336.328125 0)"/>
      <use xlink:href="#ArialMT-39" transform="translate(364.111328 0)"/>
      <use xlink:href="#ArialMT-35" transform="translate(419.726562 0)"/>
      <use xlink:href="#ArialMT-25" transform="translate(475.341797 0)"/>
      <use xlink:href="#ArialMT-20" transform="translate(564.257812 0)"/>
      <use xlink:href="#ArialMT-43" transform="translate(592.041016 0)"/>
      <use xlink:href="#ArialMT-49" transform="translate(664.257812 0)"/>
     </g>
    </g>
    <g id="line2d_24">
     <path d="M 147.271906 142.271728 
L 151.771906 142.271728 
L 156.271906 142.271728 
" style="fill: none; stroke: #ffffff; stroke-width: 1.5; stroke-linecap: square"/>
     <defs>
      <path id="mde59a605b4" d="M 0 3.5 
C 0.928211 3.5 1.81853 3.131218 2.474874 2.474874 
C 3.131218 1.81853 3.5 0.928211 3.5 0 
C 3.5 -0.928211 3.131218 -1.81853 2.474874 -2.474874 
C 1.81853 -3.131218 0.928211 -3.5 0 -3.5 
C -0.928211 -3.5 -1.81853 -3.131218 -2.474874 -2.474874 
C -3.131218 -1.81853 -3.5 -0.928211 -3.5 0 
C -3.5 0.928211 -3.131218 1.81853 -2.474874 2.474874 
C -1.81853 3.131218 -0.928211 3.5 0 3.5 
z
" style="stroke: #000000; stroke-width: 0.55"/>
     </defs>
     <g>
      <use xlink:href="#mde59a605b4" x="151.771906" y="142.271728" style="fill: #e69f00; stroke: #000000; stroke-width: 0.55"/>
     </g>
    </g>
    <g id="text_16">
     <!-- Opus -->
     <g transform="translate(158.521906 145.421728) scale(0.09 -0.09)">
      <defs>
       <path id="ArialMT-4f" d="M 309 2231 
Q 309 3372 921 4017 
Q 1534 4663 2503 4663 
Q 3138 4663 3647 4359 
Q 4156 4056 4423 3514 
Q 4691 2972 4691 2284 
Q 4691 1588 4409 1038 
Q 4128 488 3612 205 
Q 3097 -78 2500 -78 
Q 1853 -78 1343 234 
Q 834 547 571 1087 
Q 309 1628 309 2231 
z
M 934 2222 
Q 934 1394 1379 917 
Q 1825 441 2497 441 
Q 3181 441 3623 922 
Q 4066 1403 4066 2288 
Q 4066 2847 3877 3264 
Q 3688 3681 3323 3911 
Q 2959 4141 2506 4141 
Q 1863 4141 1398 3698 
Q 934 3256 934 2222 
z
" transform="scale(0.015625)"/>
       <path id="ArialMT-70" d="M 422 -1272 
L 422 3319 
L 934 3319 
L 934 2888 
Q 1116 3141 1344 3267 
Q 1572 3394 1897 3394 
Q 2322 3394 2647 3175 
Q 2972 2956 3137 2557 
Q 3303 2159 3303 1684 
Q 3303 1175 3120 767 
Q 2938 359 2589 142 
Q 2241 -75 1856 -75 
Q 1575 -75 1351 44 
Q 1128 163 984 344 
L 984 -1272 
L 422 -1272 
z
M 931 1641 
Q 931 1000 1190 694 
Q 1450 388 1819 388 
Q 2194 388 2461 705 
Q 2728 1022 2728 1688 
Q 2728 2322 2467 2637 
Q 2206 2953 1844 2953 
Q 1484 2953 1207 2617 
Q 931 2281 931 1641 
z
" transform="scale(0.015625)"/>
       <path id="ArialMT-73" d="M 197 991 
L 753 1078 
Q 800 744 1014 566 
Q 1228 388 1613 388 
Q 2000 388 2187 545 
Q 2375 703 2375 916 
Q 2375 1106 2209 1216 
Q 2094 1291 1634 1406 
Q 1016 1563 777 1677 
Q 538 1791 414 1992 
Q 291 2194 291 2438 
Q 291 2659 392 2848 
Q 494 3038 669 3163 
Q 800 3259 1026 3326 
Q 1253 3394 1513 3394 
Q 1903 3394 2198 3281 
Q 2494 3169 2634 2976 
Q 2775 2784 2828 2463 
L 2278 2388 
Q 2241 2644 2061 2787 
Q 1881 2931 1553 2931 
Q 1166 2931 1000 2803 
Q 834 2675 834 2503 
Q 834 2394 903 2306 
Q 972 2216 1119 2156 
Q 1203 2125 1616 2013 
Q 2213 1853 2448 1751 
Q 2684 1650 2818 1456 
Q 2953 1263 2953 975 
Q 2953 694 2789 445 
Q 2625 197 2315 61 
Q 2006 -75 1616 -75 
Q 969 -75 630 194 
Q 291 463 197 991 
z
" transform="scale(0.015625)"/>
      </defs>
      <use xlink:href="#ArialMT-4f"/>
      <use xlink:href="#ArialMT-70" transform="translate(77.783203 0)"/>
      <use xlink:href="#ArialMT-75" transform="translate(133.398438 0)"/>
      <use xlink:href="#ArialMT-73" transform="translate(189.013672 0)"/>
     </g>
    </g>
    <g id="line2d_25">
     <path d="M 187.771906 142.271728 
L 192.271906 142.271728 
L 196.771906 142.271728 
" style="fill: none; stroke: #ffffff; stroke-width: 1.5; stroke-linecap: square"/>
     <defs>
      <path id="mdbff8d5dbe" d="M 0 -3.5 
L -0.785799 -1.081559 
L -3.328698 -1.081559 
L -1.271449 0.413119 
L -2.057248 2.831559 
L -0 1.336881 
L 2.057248 2.831559 
L 1.271449 0.413119 
L 3.328698 -1.081559 
L 0.785799 -1.081559 
z
" style="stroke: #000000; stroke-width: 0.55; stroke-linejoin: bevel"/>
     </defs>
     <g>
      <use xlink:href="#mdbff8d5dbe" x="192.271906" y="142.271728" style="fill: #0072b2; stroke: #000000; stroke-width: 0.55; stroke-linejoin: bevel"/>
     </g>
    </g>
    <g id="text_17">
     <!-- GPT-5 -->
     <g transform="translate(199.021906 145.421728) scale(0.09 -0.09)">
      <defs>
       <path id="ArialMT-47" d="M 2638 1797 
L 2638 2334 
L 4578 2338 
L 4578 638 
Q 4131 281 3656 101 
Q 3181 -78 2681 -78 
Q 2006 -78 1454 211 
Q 903 500 622 1047 
Q 341 1594 341 2269 
Q 341 2938 620 3517 
Q 900 4097 1425 4378 
Q 1950 4659 2634 4659 
Q 3131 4659 3532 4498 
Q 3934 4338 4162 4050 
Q 4391 3763 4509 3300 
L 3963 3150 
Q 3859 3500 3706 3700 
Q 3553 3900 3268 4020 
Q 2984 4141 2638 4141 
Q 2222 4141 1919 4014 
Q 1616 3888 1430 3681 
Q 1244 3475 1141 3228 
Q 966 2803 966 2306 
Q 966 1694 1177 1281 
Q 1388 869 1791 669 
Q 2194 469 2647 469 
Q 3041 469 3416 620 
Q 3791 772 3984 944 
L 3984 1797 
L 2638 1797 
z
" transform="scale(0.015625)"/>
       <path id="ArialMT-50" d="M 494 0 
L 494 4581 
L 2222 4581 
Q 2678 4581 2919 4538 
Q 3256 4481 3484 4323 
Q 3713 4166 3852 3881 
Q 3991 3597 3991 3256 
Q 3991 2672 3619 2267 
Q 3247 1863 2275 1863 
L 1100 1863 
L 1100 0 
L 494 0 
z
M 1100 2403 
L 2284 2403 
Q 2872 2403 3119 2622 
Q 3366 2841 3366 3238 
Q 3366 3525 3220 3729 
Q 3075 3934 2838 4000 
Q 2684 4041 2272 4041 
L 1100 4041 
L 1100 2403 
z
" transform="scale(0.015625)"/>
       <path id="ArialMT-54" d="M 1659 0 
L 1659 4041 
L 150 4041 
L 150 4581 
L 3781 4581 
L 3781 4041 
L 2266 4041 
L 2266 0 
L 1659 0 
z
" transform="scale(0.015625)"/>
      </defs>
      <use xlink:href="#ArialMT-47"/>
      <use xlink:href="#ArialMT-50" transform="translate(77.783203 0)"/>
      <use xlink:href="#ArialMT-54" transform="translate(144.482422 0)"/>
      <use xlink:href="#ArialMT-2d" transform="translate(200.066406 0)"/>
      <use xlink:href="#ArialMT-35" transform="translate(233.367188 0)"/>
     </g>
    </g>
    <g id="line2d_26">
     <path d="M 232.769094 142.271728 
L 237.269094 142.271728 
L 241.769094 142.271728 
" style="fill: none; stroke: #ffffff; stroke-width: 1.5; stroke-linecap: square"/>
     <defs>
      <path id="m1ba0209e57" d="M -3.5 3.5 
L 3.5 3.5 
L 3.5 -3.5 
L -3.5 -3.5 
z
" style="stroke: #000000; stroke-width: 0.55; stroke-linejoin: miter"/>
     </defs>
     <g>
      <use xlink:href="#m1ba0209e57" x="237.269094" y="142.271728" style="fill: #56b4e9; stroke: #000000; stroke-width: 0.55; stroke-linejoin: miter"/>
     </g>
    </g>
    <g id="text_18">
     <!-- GPT-4o -->
     <g transform="translate(244.019094 145.421728) scale(0.09 -0.09)">
      <use xlink:href="#ArialMT-47"/>
      <use xlink:href="#ArialMT-50" transform="translate(77.783203 0)"/>
      <use xlink:href="#ArialMT-54" transform="translate(144.482422 0)"/>
      <use xlink:href="#ArialMT-2d" transform="translate(200.066406 0)"/>
      <use xlink:href="#ArialMT-34" transform="translate(233.367188 0)"/>
      <use xlink:href="#ArialMT-6f" transform="translate(288.982422 0)"/>
     </g>
    </g>
    <g id="line2d_27">
     <path d="M 282.771125 142.271728 
L 287.271125 142.271728 
L 291.771125 142.271728 
" style="fill: none; stroke: #ffffff; stroke-width: 1.5; stroke-linecap: square"/>
     <defs>
      <path id="m178e514f00" d="M 0 -3.5 
L -3.5 3.5 
L 3.5 3.5 
z
" style="stroke: #000000; stroke-width: 0.55; stroke-linejoin: miter"/>
     </defs>
     <g>
      <use xlink:href="#m178e514f00" x="287.271125" y="142.271728" style="fill: #cc79a7; stroke: #000000; stroke-width: 0.55; stroke-linejoin: miter"/>
     </g>
    </g>
    <g id="text_19">
     <!-- Sonnet -->
     <g transform="translate(294.021125 145.421728) scale(0.09 -0.09)">
      <use xlink:href="#ArialMT-53"/>
      <use xlink:href="#ArialMT-6f" transform="translate(66.699219 0)"/>
      <use xlink:href="#ArialMT-6e" transform="translate(122.314453 0)"/>
      <use xlink:href="#ArialMT-6e" transform="translate(177.929688 0)"/>
      <use xlink:href="#ArialMT-65" transform="translate(233.544922 0)"/>
      <use xlink:href="#ArialMT-74" transform="translate(289.160156 0)"/>
     </g>
    </g>
    <g id="line2d_28">
     <path d="M 330.284094 142.271728 
L 334.784094 142.271728 
L 339.284094 142.271728 
" style="fill: none; stroke: #ffffff; stroke-width: 1.5; stroke-linecap: square"/>
     <defs>
      <path id="m4094d85740" d="M -0 4.949747 
L 4.949747 0 
L 0 -4.949747 
L -4.949747 -0 
z
" style="stroke: #000000; stroke-width: 0.55; stroke-linejoin: miter"/>
     </defs>
     <g>
      <use xlink:href="#m4094d85740" x="334.784094" y="142.271728" style="fill: #009e73; stroke: #000000; stroke-width: 0.55; stroke-linejoin: miter"/>
     </g>
    </g>
    <g id="text_20">
     <!-- o3 -->
     <g transform="translate(341.534094 145.421728) scale(0.09 -0.09)">
      <use xlink:href="#ArialMT-6f"/>
      <use xlink:href="#ArialMT-33" transform="translate(55.615234 0)"/>
     </g>
    </g>
    <g id="line2d_29">
     <path d="M 359.283781 142.271728 
L 363.783781 142.271728 
L 368.283781 142.271728 
" style="fill: none; stroke: #ffffff; stroke-width: 1.5; stroke-linecap: square"/>
     <defs>
      <path id="m554cba849b" d="M -1.75 3.5 
L 0 1.75 
L 1.75 3.5 
L 3.5 1.75 
L 1.75 0 
L 3.5 -1.75 
L 1.75 -3.5 
L 0 -1.75 
L -1.75 -3.5 
L -3.5 -1.75 
L -1.75 0 
L -3.5 1.75 
z
" style="stroke: #000000; stroke-width: 0.55; stroke-linejoin: miter"/>
     </defs>
     <g>
      <use xlink:href="#m554cba849b" x="363.783781" y="142.271728" style="fill: #f0e442; stroke: #000000; stroke-width: 0.55; stroke-linejoin: miter"/>
     </g>
    </g>
    <g id="text_21">
     <!-- Gemini -->
     <g transform="translate(370.533781 145.421728) scale(0.09 -0.09)">
      <use xlink:href="#ArialMT-47"/>
      <use xlink:href="#ArialMT-65" transform="translate(77.783203 0)"/>
      <use xlink:href="#ArialMT-6d" transform="translate(133.398438 0)"/>
      <use xlink:href="#ArialMT-69" transform="translate(216.699219 0)"/>
      <use xlink:href="#ArialMT-6e" transform="translate(238.916016 0)"/>
      <use xlink:href="#ArialMT-69" transform="translate(294.53125 0)"/>
     </g>
    </g>
    <g id="line2d_30">
     <path d="M 406.779875 142.271728 
L 411.279875 142.271728 
L 415.779875 142.271728 
" style="fill: none; stroke: #ffffff; stroke-width: 1.5; stroke-linecap: square"/>
     <defs>
      <path id="m7596e55478" d="M -1.166667 3.5 
L 1.166667 3.5 
L 1.166667 1.166667 
L 3.5 1.166667 
L 3.5 -1.166667 
L 1.166667 -1.166667 
L 1.166667 -3.5 
L -1.166667 -3.5 
L -1.166667 -1.166667 
L -3.5 -1.166667 
L -3.5 1.166667 
L -1.166667 1.166667 
z
" style="stroke: #000000; stroke-width: 0.55; stroke-linejoin: miter"/>
     </defs>
     <g>
      <use xlink:href="#m7596e55478" x="411.279875" y="142.271728" style="fill: #d55e00; stroke: #000000; stroke-width: 0.55; stroke-linejoin: miter"/>
     </g>
    </g>
    <g id="text_22">
     <!-- Kimi -->
     <g transform="translate(418.029875 145.421728) scale(0.09 -0.09)">
      <defs>
       <path id="ArialMT-4b" d="M 469 0 
L 469 4581 
L 1075 4581 
L 1075 2309 
L 3350 4581 
L 4172 4581 
L 2250 2725 
L 4256 0 
L 3456 0 
L 1825 2319 
L 1075 1588 
L 1075 0 
L 469 0 
z
" transform="scale(0.015625)"/>
      </defs>
      <use xlink:href="#ArialMT-4b"/>
      <use xlink:href="#ArialMT-69" transform="translate(66.699219 0)"/>
      <use xlink:href="#ArialMT-6d" transform="translate(88.916016 0)"/>
      <use xlink:href="#ArialMT-69" transform="translate(172.216797 0)"/>
     </g>
    </g>
   </g>
   <g id="line2d_31">
    <defs>
     <path id="m63918cb014" d="M -0 3.394113 
L 3.394113 0 
L 0 -3.394113 
L -3.394113 -0 
z
" style="stroke: #374151; stroke-opacity: 0.92; stroke-width: 0.85; stroke-linejoin: miter"/>
    </defs>
    <g clip-path="url(#p05935d6e82)">
     <use xlink:href="#m63918cb014" x="304.76982" y="15.006786" style="fill: #ffffff; fill-opacity: 0.92; stroke: #374151; stroke-opacity: 0.92; stroke-width: 0.85; stroke-linejoin: miter"/>
    </g>
   </g>
   <g id="line2d_32">
    <g clip-path="url(#p05935d6e82)">
     <use xlink:href="#m63918cb014" x="358.368391" y="38.364579" style="fill: #ffffff; fill-opacity: 0.92; stroke: #374151; stroke-opacity: 0.92; stroke-width: 0.85; stroke-linejoin: miter"/>
    </g>
   </g>
   <g id="line2d_33">
    <g clip-path="url(#p05935d6e82)">
     <use xlink:href="#m63918cb014" x="382.401929" y="61.722372" style="fill: #ffffff; fill-opacity: 0.92; stroke: #374151; stroke-opacity: 0.92; stroke-width: 0.85; stroke-linejoin: miter"/>
    </g>
   </g>
   <g id="line2d_34">
    <g clip-path="url(#p05935d6e82)">
     <use xlink:href="#m63918cb014" x="385.698206" y="85.080166" style="fill: #ffffff; fill-opacity: 0.92; stroke: #374151; stroke-opacity: 0.92; stroke-width: 0.85; stroke-linejoin: miter"/>
    </g>
   </g>
  </g>
 </g>
 <defs>
  <clipPath id="p05935d6e82">
   <rect x="54.186875" y="2.16" width="393.156" height="101.6064"/>
  </clipPath>
 </defs>
</svg>
